<svg width="23" height="23" viewBox="0 0 23 23" fill="none" xmlns="http://www.w3.org/2000/svg">
<path fill-rule="evenodd" clip-rule="evenodd" d="M11.25 2.02503C14.25 2.02503 14.61 2.03628 15.7958 2.09028C16.5093 2.0987 17.2162 2.22987 17.8853 2.47803C18.3737 2.65836 18.8156 2.94591 19.1783 3.31954C19.5519 3.68222 19.8394 4.12405 20.0198 4.61254C20.2679 5.28164 20.3991 5.98845 20.4075 6.70204C20.4615 7.89004 20.475 8.25004 20.475 11.25C20.475 14.25 20.4638 14.6101 20.4098 15.7958C20.4013 16.5094 20.2702 17.2162 20.022 17.8853C19.8347 18.3703 19.5481 18.8107 19.1805 19.1783C18.8129 19.5459 18.3725 19.8325 17.8875 20.0198C17.2184 20.268 16.5116 20.3991 15.798 20.4076C14.6123 20.4616 14.256 20.4728 11.2523 20.4728C8.24851 20.4728 7.89226 20.4616 6.70651 20.4076C5.99292 20.3991 5.2861 20.268 4.617 20.0198C4.12852 19.8395 3.68668 19.5519 3.324 19.1783C2.95038 18.8156 2.66282 18.3738 2.4825 17.8853C2.23434 17.2162 2.10317 16.5094 2.09475 15.7958C2.0385 14.6101 2.025 14.2538 2.025 11.25C2.025 8.24629 2.03625 7.89004 2.09025 6.70429C2.09867 5.9907 2.22984 5.28389 2.478 4.61479C2.65898 4.12609 2.94731 3.68424 3.32175 3.32178C3.68443 2.94816 4.12627 2.66061 4.61475 2.48028C5.28385 2.23212 5.99067 2.10095 6.70426 2.09253C7.89001 2.03853 8.25001 2.02503 11.25 2.02503ZM11.25 3.05176e-05C8.19451 3.05176e-05 7.81126 0.0127806 6.612 0.0675306C5.67842 0.0873102 4.7549 0.264813 3.8805 0.592531C3.13033 0.874865 2.45059 1.3171 1.8885 1.88853C1.31626 2.4504 0.873243 3.13015 0.59025 3.88054C0.262532 4.75493 0.0850296 5.67845 0.0652501 6.61204C0.01275 7.81129 0 8.19454 0 11.25C0 14.3055 0.01275 14.6888 0.0675001 15.8881C0.0872796 16.8216 0.264782 17.7452 0.5925 18.6196C0.875493 19.3699 1.31851 20.0497 1.89075 20.6116C2.45262 21.1838 3.13237 21.6268 3.88275 21.9098C4.75715 22.2375 5.68067 22.415 6.61425 22.4348C7.81426 22.4896 8.19676 22.5023 11.2523 22.5023C14.3078 22.5023 14.691 22.4896 15.8903 22.4348C16.8238 22.415 17.7474 22.2375 18.6218 21.9098C19.3688 21.6203 20.0472 21.1781 20.6138 20.6116C21.1803 20.045 21.6225 19.3666 21.912 18.6196C22.2397 17.7452 22.4172 16.8216 22.437 15.8881C22.4918 14.6881 22.5045 14.3055 22.5045 11.25C22.5045 8.19454 22.4918 7.81129 22.437 6.61204C22.4172 5.67845 22.2397 4.75493 21.912 3.88054C21.629 3.13015 21.186 2.4504 20.6138 1.88853C20.0519 1.31629 19.3721 0.873274 18.6218 0.590281C17.7474 0.262563 16.8238 0.0850602 15.8903 0.0652806C14.6888 0.0127805 14.3055 3.05176e-05 11.25 3.05176e-05ZM11.25 5.47504C10.1078 5.47504 8.99127 5.81374 8.04157 6.44831C7.09187 7.08287 6.35167 7.98481 5.91458 9.04006C5.47748 10.0953 5.36311 11.2565 5.58594 12.3767C5.80877 13.497 6.35879 14.526 7.16644 15.3336C7.97409 16.1413 9.00311 16.6913 10.1234 16.9141C11.2436 17.137 12.4048 17.0226 13.46 16.5855C14.5153 16.1484 15.4172 15.4082 16.0518 14.4585C16.6863 13.5088 17.025 12.3923 17.025 11.2501C17.025 9.71844 16.4166 8.24953 15.3336 7.1665C14.2505 6.08348 12.7816 5.47504 11.25 5.47504ZM11.25 15.0001C10.5083 15.0001 9.78329 14.7802 9.1666 14.3681C8.54992 13.956 8.06927 13.3704 7.78544 12.6851C7.50161 11.9999 7.42735 11.2459 7.57204 10.5185C7.71674 9.79105 8.07389 9.12286 8.59834 8.5984C9.12279 8.07395 9.79098 7.7168 10.5184 7.5721C11.2458 7.42741 11.9998 7.50167 12.6851 7.7855C13.3703 8.06933 13.956 8.54998 14.368 9.16667C14.7801 9.78336 15 10.5084 15 11.2501C15 12.2446 14.6049 13.1985 13.9017 13.9017C13.1984 14.605 12.2446 15.0001 11.25 15.0001ZM18.6052 5.24478C18.6052 5.99037 18.0008 6.5948 17.2552 6.5948C16.5097 6.5948 15.9053 5.99037 15.9053 5.24478C15.9053 4.49918 16.5097 3.89476 17.2552 3.89476C18.0008 3.89476 18.6052 4.49918 18.6052 5.24478Z" fill="white"/>
</svg>
