<svg width="25" height="20" viewBox="0 0 25 20" fill="none" xmlns="http://www.w3.org/2000/svg">
<path d="M24.075 2.32502C23.175 2.70002 22.275 3.00002 21.225 3.07502C22.275 2.47502 23.025 1.50003 23.4 0.37503C22.425 0.975028 21.375 1.35003 20.25 1.57503C19.35 0.600029 18.075 3.05176e-05 16.725 3.05176e-05C14.025 3.05176e-05 11.775 2.17503 11.775 4.95002C11.775 5.32502 11.85 5.70002 11.925 6.07502C7.79998 5.85002 4.19999 3.90002 1.725 0.900028C1.275 1.65003 1.05 2.47502 1.05 3.37502C1.05 5.10002 1.95 6.60001 3.22499 7.50001C2.4 7.50001 1.65 7.27501 0.974998 6.90001V6.97501C0.974998 9.37501 2.69999 11.325 4.94999 11.775C4.49999 11.85 4.12499 11.925 3.67499 11.925C3.37499 11.925 3.07499 11.925 2.77499 11.85C3.37499 13.8 5.24999 15.225 7.34999 15.3C5.69999 16.65 3.52499 17.4 1.2 17.4C0.824998 17.4 0.374999 17.4 0 17.325C2.25 18.675 4.87499 19.5 7.64999 19.5C16.725 19.5 21.675 12 21.675 5.47502C21.675 5.25002 21.675 5.02502 21.675 4.87502C22.575 4.12502 23.4 3.30002 24.075 2.32502Z" fill="white"/>
</svg>
